HIERARCHY
ROOT Hips
{
	OFFSET 0.00000 0.00000 0.00000
	CHANNELS 6 Xposition Yposition Zposition Yrotation Zrotation Xrotation 
	JOINT Lumbar
	{
		OFFSET 0 0 0
		CHANNELS 3 Zrotation Xrotation Yrotation
		JOINT Neck
		{
			OFFSET 0.00 0.2701 0.00
			CHANNELS 3 Zrotation Xrotation Yrotation
			End Site
			{
				OFFSET 0.00 0.1379 0.00
			}
		}
		JOINT RightShoulder
		{
			OFFSET 0.0119 0.2289 0.1181
			CHANNELS 3 Zrotation Xrotation Yrotation
			JOINT RightElbow
			{
				OFFSET 0.00 -0.1475 0.00
				CHANNELS 2 Zrotation Yrotation
				JOINT RightWrist
				{
					OFFSET 0.00 -0.1605 0.00
					CHANNELS 2 Zrotation Xrotation
					End Site
					{
						OFFSET 0.0040 -0.1068 0.0006
					}
				}
			}
		}
		JOINT LeftShoulder
		{
			OFFSET 0.0119 0.2289 -0.1181
			CHANNELS 3 Zrotation Xrotation Yrotation
			JOINT LeftElbow
			{
				OFFSET 0.00 -0.1475 0.00
				CHANNELS 2 Zrotation Yrotation
				JOINT LeftWrist
				{
					OFFSET 0.00 -0.1605 0.00
					CHANNELS 2 Zrotation Xrotation
					End Site
					{
						OFFSET 0.0040 -0.1068 -0.0006
					}
				}
			}
		}
	}
	JOINT RightHip
	{
		OFFSET 0.0316 -0.0424 0.0458
		CHANNELS 3 Zrotation Xrotation Yrotation
		JOINT RightKnee
		{
			OFFSET 0.00 -0.2438 0.00
			CHANNELS 1 Zrotation
			JOINT RightAnkle
			{
				OFFSET 0.00 -0.2449 0.00
				CHANNELS 3 Zrotation Xrotation Yrotation
				End Site
				{
					OFFSET 0.1237 -0.0542 0.0051
				}
			}
		}
	}
	JOINT LeftHip
	{
		OFFSET 0.0316 -0.0424 -0.0458
		CHANNELS 3 Zrotation Xrotation Yrotation
		JOINT LeftKnee
		{
			OFFSET 0.00 -0.2438 0.00
			CHANNELS 1 Zrotation
			JOINT LeftAnkle
			{
				OFFSET 0.00 -0.2449 0.00
				CHANNELS 3 Zrotation Xrotation Yrotation
				End Site
				{
					OFFSET 0.1237 -0.0542 -0.0051
				}
			}
		}
	}
}
MOTION
Frames: 33
Frame Time: 0.02
0.00666 0.00447 0.00338 144.3294 -41.46108 -9.12242 40.23258 -0.22462 -10.32809 2.19081 -6.18567 -0.26796 -26.45999 -5.07296 -6.54969 31.02422 80.41223 -2.59828 -1.064 -14.18029 36.67341 -26.84829 46.12376 -112.0639 -3.84391 9.15756 35.70927 -0.03121 0.34221 -20.02375 -8.11773 -5.73308 -3.80199 41.7261 2.54676 -5.03233 -23.46354 -7.16427 3.03204 2.28736
0.00576 0.00375 0.00044 143.74869 -41.22926 -9.1809 40.42241 -0.20411 -9.95363 1.63394 -6.03626 -0.26894 -26.00371 -5.35565 -6.37863 30.7639 80.92008 -2.22417 -0.92742 -14.03901 36.26831 -24.70398 44.59666 -104.9615 -5.20279 7.66064 35.37631 -0.02834 -0.37894 -20.08697 -8.02277 -5.65686 -3.75258 41.32395 2.77943 -4.41527 -23.6584 -7.14447 3.03627 2.28374
0.00487 0.00302 -0.00249 143.16938 -40.99708 -9.23977 40.61047 -0.18307 -9.58004 1.07866 -5.88738 -0.26995 -25.54738 -5.63703 -6.21083 30.50371 81.42002 -1.85391 -0.79007 -13.89966 35.8654 -22.56702 43.07602 -97.89206 -6.55316 6.16917 35.04294 -0.02494 -1.09963 -20.14984 -7.9279 -5.58068 -3.7032 40.92397 3.01185 -3.801 -23.85677 -7.12487 3.04068 2.28025
0.00397 0.0023 -0.00542 142.59036 -40.76574 -9.29819 40.79951 -0.16253 -9.20671 0.52344 -5.73845 -0.27093 -25.09224 -5.91874 -6.04083 30.24403 81.92511 -1.48146 -0.65368 -13.75911 35.46171 -20.42944 41.55393 -90.81354 -7.90711 4.67703 34.7107 -0.02199 -1.8189 -20.21283 -7.8332 -5.50466 -3.65392 40.52303 3.24391 -3.18603 -24.05157 -7.10513 3.04493 2.27667
0.00307 0.00158 -0.00836 142.01015 -40.53534 -9.35597 40.99082 -0.14274 -8.83255 -0.03321 -5.58895 -0.27188 -24.63779 -6.20204 -5.86627 29.98462 82.44096 -1.10396 -0.51863 -13.61593 35.05545 -18.28421 40.0247 -83.69734 -9.27132 3.17903 34.37958 -0.01979 -2.53779 -20.27627 -7.7385 -5.4287 -3.60466 40.12006 3.47594 -2.56783 -24.24166 -7.08521 3.04894 2.2729
0.00219 0.00085 -0.01129 141.43283 -40.29954 -9.41709 41.17207 -0.11908 -8.46017 -0.58552 -5.44137 -0.273 -24.17757 -6.4794 -5.7125 29.72287 82.90777 -0.7488 -0.37653 -13.48457 34.65955 -16.16474 38.52215 -76.72619 -10.59265 1.70134 34.04162 -0.0139 -3.2621 -20.33794 -7.64331 -5.35208 -3.55504 39.72665 3.70913 -1.96176 -24.45755 -7.0663 3.05417 2.26999
0.00128 0.00013 -0.01423 140.85016 -40.0744 -9.47153 41.37318 -0.10323 -8.08479 -1.14623 -5.29015 -0.27379 -23.72925 -6.76811 -5.51788 29.46575 83.4713 -0.34965 -0.24843 -13.32996 34.24339 -13.99596 36.96778 -69.47299 -11.99827 0.18473 33.71731 -0.01538 -3.97516 -20.40305 -7.54916 -5.2768 -3.50618 39.3132 3.93993 -1.33234 -24.62052 -7.04523 3.05697 2.26537
0.00039 -0.00059 -0.01716 140.27272 -39.84026 -9.53197 41.55631 -0.0802 -7.71185 -1.69867 -5.14219 -0.27488 -23.27036 -7.0469 -5.35945 29.20502 83.94828 0.00998 -0.10804 -13.19607 33.84566 -11.87229 35.46081 -62.47596 -13.32716 -1.29657 33.3813 -0.01015 -4.69778 -20.46509 -7.45414 -5.2004 -3.45668 38.92049 4.17258 -0.72374 -24.83369 -7.02643 3.06195 2.2623
-0.00047 -0.00133 -0.02008 139.70017 -39.59153 -9.60049 41.71603 -0.04817 -7.34298 -2.24332 -4.99852 -0.27635 -22.79651 -7.31145 -5.25156 28.93706 84.30803 0.31679 0.05008 -13.09058 33.47145 -9.80447 34.01301 -55.80668 -14.55806 -2.73289 33.02706 0.00372 -5.43594 -20.52297 -7.35763 -5.12211 -3.4061 38.54414 4.40906 -0.14331 -25.10347 -7.0093 3.06988 2.26126
-0.00147 -0.00201 -0.02308 139.09497 -39.41592 -9.62478 42.00612 -0.06724 -6.95396 -2.83979 -4.8311 -0.27565 -22.40255 -7.65159 -4.87185 28.70218 85.30781 0.91392 0.11436 -12.83096 32.96489 -7.41739 32.22844 -47.29562 -16.34009 -4.42258 32.76588 -0.03082 -6.09631 -20.60353 -7.26841 -5.05315 -3.36082 38.04663 4.62828 0.59102 -25.03334 -6.97924 3.06166 2.24895
-0.00219 -0.0028 -0.0259 138.5616 -39.0931 -9.74088 42.02402 0.02101 -6.60539 -3.32242 -4.71322 -0.27953 -21.84417 -7.8363 -5.05324 28.40306 84.97993 0.90747 0.37126 -12.89043 32.7356 -5.70265 31.15199 -42.64159 -16.96781 -5.58114 32.31607 0.0359 -6.91315 -20.63704 -7.16466 -4.96549 -3.30496 37.82193 4.88079 1.00592 -25.68894 -6.97857 3.08696 2.26012
-0.00211 -0.00392 -0.02826 138.20295 -38.30365 -10.12316 41.26413 0.41034 -6.38593 -3.52743 -4.73722 -0.29615 -20.7965 -7.55787 -6.88898 27.881 80.78799 -0.84493 1.20599 -13.88578 33.29115 -5.86175 32.05754 -48.9141 -14.32721 -5.2392 31.27892 0.39002 -8.22796 -20.53314 -7.01341 -4.81785 -3.21474 38.2095 5.25126 0.49385 -28.27961 -7.04136 3.20982 2.33885
-0.00176 -0.00514 -0.03043 137.92059 -37.37788 -10.59449 40.23692 0.9058 -6.20388 -3.6121 -4.80988 -0.31734 -19.59138 -7.13078 -9.26467 27.30374 75.30635 -3.18619 2.22465 -15.19113 34.12069 -6.69125 33.66665 -58.99567 -10.54716 -4.37164 30.06476 0.84354 -9.68759 -20.38326 -6.84897 -4.653 -3.11485 38.89414 5.65017 -0.32858 -31.6043 -7.1363 3.36523 2.44052
-0.00155 -0.0063 -0.03265 137.61794 -36.55549 -11.01636 39.35183 1.34896 -5.99268 -3.72862 -4.85637 -0.33638 -18.48239 -6.79489 -11.3213 26.78132 70.55572 -5.2002 3.12748 -16.31428 34.80917 -7.19425 34.92883 -67.11126 -7.35303 -3.77308 28.97775 1.24608 -11.03568 -20.26016 -6.69553 -4.50176 -3.02289 39.53464 6.01881 -0.97737 -34.63661 -7.22847 3.5022 2.52972
-0.00122 -0.00752 -0.035 137.25467 -35.55825 -11.47834 38.37791 1.81128 -5.83221 -3.93965 -4.92001 -0.35581 -17.26683 -6.35641 -13.69935 26.13042 65.18008 -7.46967 4.16833 -17.60934 35.568 -7.78813 36.30849 -76.22856 -3.86497 -3.04741 27.69527 1.67556 -12.5755 -20.11319 -6.52096 -4.32621 -2.9161 39.80101 6.46104 -1.76866 -37.51793 -7.27301 3.65495 2.62785
-0.00111 -0.00865 -0.03706 137.03581 -34.89249 -11.87542 37.52712 2.25663 -5.57571 -3.92742 -4.95957 -0.37541 -16.23905 -6.0995 -15.52428 25.73751 60.81393 -9.3435 4.96335 -18.62376 36.24532 -8.35493 37.60863 -84.15951 -0.72429 -2.46044 26.77538 2.0697 -13.75231 -20.00371 -6.38725 -4.19702 -2.83777 40.90589 6.75634 -2.33136 -40.86079 -7.42153 3.78213 2.71249
-0.00156 -0.00953 -0.03833 137.1963 -35.17925 -12.09231 37.07045 2.64772 -5.0383 -3.31068 -4.9202 -0.39509 -15.74249 -6.35394 -15.78764 26.04165 59.43722 -10.0061 5.05141 -18.75287 36.62771 -8.65047 38.52796 -87.88809 1.21741 -2.3997 26.92236 2.36566 -13.87223 -20.02048 -6.37006 -4.20205 -2.84165 44.34647 6.64141 -2.23326 -45.52249 -7.87342 3.83441 2.75699
-0.00226 -0.01032 -0.03932 137.49951 -35.80346 -12.23695 36.74928 3.01455 -4.4043 -2.47706 -4.8554 -0.41465 -15.44524 -6.80103 -15.45805 26.61298 59.13906 -10.24599 4.8833 -18.59567 36.91834 -8.90019 39.34056 -90.28679 2.76163 -2.49418 27.43572 2.61832 -13.62453 -20.0743 -6.39442 -4.25404 -2.87431 48.60152 6.37676 -1.88702 -50.57829 -8.42432 3.85925 2.78668
-0.00291 -0.01114 -0.04047 137.73799 -36.2709 -12.40092 36.37339 3.38031 -3.81869 -1.75378 -4.8021 -0.43378 -15.0737 -7.17754 -15.33451 27.08065 58.42658 -10.6617 4.82032 -18.59146 37.25358 -9.19358 40.19483 -93.2922 4.463 -2.50814 27.76745 2.87502 -13.55866 -20.10386 -6.39941 -4.28317 -2.89294 52.42477 6.17957 -1.62216 -55.3103 -8.91404 3.89408 2.82125
-0.00326 -0.01202 -0.0415 137.979 -36.74868 -12.62482 35.9586 3.8009 -3.2149 -0.97513 -4.74915 -0.45512 -14.62782 -7.47802 -15.49425 27.47043 57.36343 -11.16383 4.80816 -18.49954 37.58894 -9.41917 41.10314 -96.42975 6.30702 -2.54571 28.15902 3.2006 -13.43894 -20.16378 -6.4058 -4.31786 -2.9151 56.52566 5.98751 -1.495 -60.69103 -9.47317 3.94002 2.8641
-0.00432 -0.01276 -0.04271 138.2471 -37.28595 -12.7058 35.66125 4.10005 -2.62618 -0.2637 -4.69078 -0.47179 -14.38626 -7.98354 -14.92026 28.08778 57.2854 -11.38155 4.63101 -18.52074 37.89517 -9.75979 41.86364 -98.9154 7.74003 -2.57804 28.51254 3.3719 -13.33792 -20.16908 -6.41956 -4.35265 -2.93706 60.22911 5.74672 -1.02515 -64.78926 -9.91086 3.95652 2.88627
-0.00714 -0.01308 -0.04443 138.55959 -37.91309 -12.40788 35.65018 4.07022 -2.09798 0.22381 -4.60583 -0.47545 -14.65926 -9.01512 -12.43174 29.25622 59.8225 -10.88405 4.02518 -18.90152 38.17165 -10.48242 42.24416 -100.00198 8.16884 -2.55846 28.69502 3.12093 -13.41423 -20.02103 -6.4415 -4.37371 -2.94976 62.70838 5.42695 0.39373 -65.3789 -9.9881 3.89258 2.85162
-0.01069 -0.01327 -0.04636 138.89326 -38.58745 -11.969 35.75495 3.91863 -1.58948 0.63259 -4.51888 -0.47443 -15.13134 -10.2441 -9.23268 30.64511 63.28723 -10.11911 3.26832 -19.40862 38.41504 -11.30911 42.4753 -100.44487 8.1857 -2.53081 28.82253 2.71733 -13.51481 -19.81557 -6.4699 -4.39383 -2.96163 64.74434 5.06038 2.13922 -64.63843 -9.93948 3.80082 2.79713
-0.01399 -0.01354 -0.04824 139.21384 -39.23571 -11.59489 35.81115 3.82163 -1.07426 1.0674 -4.44492 -0.47564 -15.5144 -11.38108 -6.37323 31.94356 66.23404 -9.49424 2.6026 -19.87144 38.65408 -12.04993 42.77036 -101.11379 8.3635 -2.50916 28.96128 2.3871 -13.57984 -19.63257 -6.49664 -4.41611 -2.97502 66.93437 4.70167 3.69441 -64.41591 -9.94919 3.72556 2.75388
-0.01698 -0.01371 -0.04995 139.55387 -39.91587 -11.21338 35.85443 3.72599 -0.54426 1.55194 -4.32116 -0.47643 -15.90067 -12.54152 -3.40698 33.21783 69.63852 -8.77288 1.83134 -20.26951 38.97319 -12.95243 43.08041 -102.02025 8.63923 -2.48271 29.17284 2.03697 -13.73488 -19.46687 -6.51921 -4.43263 -2.98458 69.35381 4.39124 5.43248 -64.56466 -9.95855 3.63337 2.70095
-0.02077 -0.01406 -0.05206 139.8568 -40.53567 -10.81717 35.95075 3.60019 -0.05347 1.9102 -4.29839 -0.47697 -16.32183 -13.68849 -0.52208 34.58171 72.2785 -8.19931 1.24952 -20.83558 39.11727 -13.54344 43.32319 -102.29501 8.618 -2.46244 29.21224 1.69451 -13.71398 -19.25013 -6.55173 -4.4604 -3.00157 71.17859 3.97503 6.86695 -63.62936 -9.93624 3.56982 2.66338
-0.02649 -0.01487 -0.05517 140.04992 -40.98222 -10.39373 36.16212 3.40929 0.35447 1.9479 -4.57738 -0.47802 -16.81842 -14.82793 2.13659 36.22201 72.74267 -8.05458 1.20801 -21.84033 38.79891 -13.24696 43.43242 -100.9917 7.87947 -2.46066 28.81027 1.39382 -13.19475 -18.91333 -6.60791 -4.51844 -3.0389 71.47132 3.24421 7.35651 -59.9355 -9.86781 3.59556 2.6756
-0.033 -0.01588 -0.05869 140.20525 -41.36376 -9.96434 36.42291 3.19426 0.71917 1.85857 -4.95406 -0.47897 -17.33822 -15.93254 4.65602 37.92905 72.38022 -8.07548 1.36569 -23.00998 38.30344 -12.63365 43.47692 -99.08035 6.85821 -2.46478 28.23072 1.10922 -12.50114 -18.52517 -6.67427 -4.58772 -3.08366 71.1757 2.41509 7.53258 -55.21327 -9.76987 3.65055 2.70355
-0.03921 -0.01684 -0.06206 140.37786 -41.77016 -9.55226 36.66228 2.99831 1.08985 1.82037 -5.27135 -0.47991 -17.82673 -16.99969 7.12044 39.54858 72.27145 -8.05545 1.44847 -24.10202 37.88131 -12.16712 43.54089 -97.44682 5.96649 -2.46583 27.71781 0.82871 -11.89292 -18.1565 -6.73697 -4.6524 -3.12517 71.14528 1.65473 7.86899 -51.0168 -9.6774 3.69014 2.7227
-0.04518 -0.01762 -0.06531 140.54846 -42.19834 -9.07481 36.90092 2.76486 1.51817 1.80705 -5.65162 -0.4809 -18.40519 -18.29452 10.1002 41.41332 72.6683 -7.89216 1.46656 -25.21022 37.48879 -11.69346 43.64044 -95.78024 5.05403 -2.46825 27.26478 0.49559 -11.25752 -17.80423 -6.79505 -4.71523 -3.16621 71.11227 0.79327 8.1433 -46.51995 -9.6121 3.73785 2.74815
-0.05185 -0.01883 -0.06889 140.71696 -42.56488 -8.73235 37.15189 2.6041 1.81575 1.71322 -5.92422 -0.48182 -18.80509 -19.10966 11.97576 42.78535 71.8567 -8.0559 1.66029 -26.32146 36.99217 -11.15676 43.65393 -94.05103 4.12515 -2.4694 26.64277 0.27677 -10.63938 -17.40371 -6.86609 -4.78422 -3.2099 70.94664 0.11679 8.46596 -42.43136 -9.48736 3.77569 2.76445
-0.06013 -0.02114 -0.07329 140.86279 -42.77744 -8.77857 37.41881 2.66146 1.76928 1.42394 -5.87316 -0.48257 -18.65516 -18.5598 10.73038 42.73467 67.43655 -9.20922 2.3654 -27.40685 36.25853 -10.53443 43.43338 -92.26141 3.20291 -2.46464 25.62271 0.3793 -10.09175 -16.90936 -6.96264 -4.87048 -3.25997 70.59199 0.00035 9.01619 -39.64488 -9.1837 3.78145 2.75174
-0.06912 -0.02387 -0.07799 141.01238 -42.92954 -8.95871 37.69683 2.79116 1.59225 1.05909 -5.71075 -0.48326 -18.33372 -17.53592 8.39371 42.19296 61.90488 -10.66567 3.22845 -28.48717 35.42518 -9.85743 43.1313 -90.43759 2.27813 -2.45861 24.43573 0.5947 -9.57091 -16.36642 -7.07388 -4.9619 -3.31225 70.11918 0.06905 9.62094 -37.32504 -8.82551 3.77594 2.72932
